# xmcd CD database file
#
# Track frame offsets:
#	150
#	16985
#	27680
#	40427
#	53122
#	64810
#	80052
#	95240
#	106682
#	121637
#	135957
#	147642
#	158110
#	171140
#
# Disc length: 2435 seconds
#
# Revision: 0
# Processed by: cddbd v1.4b42PL1 Copyright (c) Steve Scherf et al.
# Submitted via: CDex 1.40Beta5
#
DISCID=bf09810e
DTITLE=Compilation - Sertanejo O Melhor de
DYEAR=1998
DGENRE=Country
TTITLE0=E' Disso Que O Velho Gosta - Gildo Campos/Berenice Azambuja
TTITLE1=Homem De Pedra - Correto/Creone
TTITLE2=Pe' Na Tabua - (Ado Benatti/Luizinho/Bigua')
TTITLE3=Os Homens Nao Devem Chorar - Mario Zan/Palmeira
TTITLE4=Merceditas - Ramon Sixto Rios/versao: Belmonte
TTITLE5=O Ipe e o Prisioneiro (Ipe Florido) - Jose' Fortuna/Paraiso
TTITLE6=Linda Cigana - Silveira/Silveirinha
TTITLE7=Aviao Das Nove - Praense/Ado
TTITLE8=Peito Sadio - Raul Torres/Rubnes Ferreira
TTITLE9=Amor Demais - Carlos Randall/Danimar
TTITLE10=Fuscao Preto - Atilio Versutti/Jeca Mineiro
TTITLE11=Recordacoes - Mario Zan/Palmeira
TTITLE12=Vou Toma' Um Pingao - Leo Canhoto
TTITLE13=De Papo Pro Ar - Joubert de Carvalho/Olegario Mariano
EXTD=YEAR: 1998 ID3G:   2
EXTT0=
EXTT1=
EXTT2=
EXTT3=
EXTT4=
EXTT5=
EXTT6=
EXTT7=
EXTT8=
EXTT9=
EXTT10=
EXTT11=
EXTT12=
EXTT13=
PLAYORDER=
